<?xml version="1.0" encoding="UTF-8"?>
<svg width="128" height="128" version="1.1" viewBox="0 0 33.867 33.867" xmlns="http://www.w3.org/2000/svg">
 <g transform="translate(0 -263.13)">
  <path d="m4.7868 264.72h24.292c1.7593 0 3.2006 1.4396 3.2006 3.2004v24.29c0 1.7614-1.4413 3.2009-3.2006 3.2009h-24.292c-1.7611 0-3.1994-1.4396-3.1994-3.2009v-24.29c0-1.7608 1.4383-3.2004 3.1994-3.2004" fill="#737370" stroke-width=".26458"/>
  <g transform="matrix(.30624 0 0 .30624 3.1517 268.93)">
   <path d="m5.169 11.32c-0.692 0.347-1.169 1.263-1.169 2.406 0 1.465 1.196 2.841 2 2.841 1.002 5.398 5.625 6.433 7 6.433s5.953-0.971 7-6.43c1.021 0 2-1.434 2-2.845 0-1.134-0.541-2.098-1.254-2.431" fill="none" stroke="#ebeded" stroke-linecap="round" stroke-linejoin="round" stroke-miterlimit="10" stroke-width="1.8"/>
   <g fill="#ebeded">
    <path d="m4.341 12.303c0.064 0.367 2.01-0.396 2.221-0.674 0.391-0.518 0.317-1.272 0.291-1.879-0.044-0.989-0.112-1.968 0.028-2.953 0.064-0.452 0.059-1.115 0.207-1.533 0.247-0.7 0.701-0.356 1.199-0.313 0.591 0.051 0.488-0.47 0.965-0.554 0.854-0.151 1.18 0.963 1.332 1.537 0.066 0.25 0.135 0.863 0.404 1.03 0.408 0.253 0.686-0.156 0.782-0.503 0.184-0.663-0.273-1.824 0.257-2.355 1.587-1.587 1.65 3.167 2.447 3.166 0.431-2e-3 0.527-0.592 0.611-0.873 0.208-0.699 0.155-1.448 0.527-2.102 0.675-1.184 2.213-1.039 3.008-0.068 1.115 1.363 0.611 2.98 0.492 4.588-0.124 1.677 0.28 3.295 2.218 3.471 0.036 3e-3 0.402 0.032 0.405 0.017 0.104-0.698 0.146-1.391 0.19-2.092 0.027-0.431 0.333-0.808 0.321-1.241-8e-3 -0.303-0.334-0.6-0.35-0.879-0.026-0.478 0.383-0.528 0.373-0.975-0.013-0.525-0.431-1.169-0.715-1.585-0.16-0.236-0.746-0.708-0.796-1.014-0.037-0.228 0.077-0.23 0.126-0.421 0.07-0.281 0.233-0.21 0.106-0.516-0.035-0.083-0.351-0.294-0.424-0.347-1.153-0.831-2.104-1.802-3.433-2.38-1.286-0.56-2.7-0.79-4.098-0.79-2.448 0-4.833 0.939-7.019 1.972-0.341 0.161-0.728 0.255-0.98 0.568-0.463 0.575 0.172 0.454 0.336 0.911 0.205 0.571-0.955 1.623-1.257 2.113-0.24 0.389-0.509 0.758-0.5 1.229 9e-3 0.413 0.276 0.712 0.267 1.087-8e-3 0.425-0.305 0.841-0.331 1.256-0.027 0.435 0.375 0.816 0.5 1.217 0.186 0.594 0.182 1.27 0.29 1.885z"/>
    <path d="m12 17c-0.375 0 0.434-2 1-2s1.281 2 1 2-0.604-0.656-0.953-0.656-0.672 0.656-1.047 0.656z"/>
    <path d="m14 12.757c0 1.085 0.918 2.206 2.004 2.206 1.996 0 2.996-1.878 2.996-2.963 0 0-1.186-1.222-2.963-0.704s-2.037 1.461-2.037 1.461zm2.5 1.415c-0.371 0-0.672-0.3-0.672-0.672s0.301-0.672 0.672-0.672 0.672 0.301 0.672 0.672-0.301 0.672-0.672 0.672z"/>
    <path d="m7 12c0 1.085 1 2.963 3.035 2.963 0.874 0 1.965-1.121 1.965-2.206zm2.5 2.172c-0.372 0-0.672-0.3-0.672-0.672s0.301-0.672 0.672-0.672 0.672 0.301 0.672 0.672-0.3 0.672-0.672 0.672z"/>
    <path d="m15.287 19.451c-0.21 0.07-0.409 0.166-0.577 0.347-0.308 0.33-0.099 0.817-0.272 1.202-0.158 0.351-0.485 0.55-0.83 0.689-0.712 0.289-1.65 0.328-2.392 0.134 0.137 0.036 0.436 0.686 0.676 0.81 0.311 0.158 0.842 0.278 1.194 0.298 0.428 0.024 0.892-0.062 1.27-0.265 0.336-0.18 0.603-0.443 0.907-0.669 0.368-0.271 0.674-0.62 1.051-0.883 0.243-0.17 0.461-0.335 0.685-0.528 0.182-0.158 0.479-0.396 0.707-0.465 0.266-0.078 0.556 0.163 0.703 0.377 0.416 0.604 0.057 2.373-0.156 2.962-0.057 0.158-0.118 0.315-0.176 0.474-0.094 0.258-0.108 0.484-0.109 0.766 0 0.408 0.232 0.956 0.61 1.141 0.339 0.166 0.61 0.234 1.194-0.053 0.304-0.15 0.43-0.678 0.46-0.994 0.028-0.304-0.026-0.602-0.149-0.876-0.141-0.313-0.336-0.595-0.48-0.9-0.133-0.282-0.202-0.589-0.232-0.898-0.025-0.253-0.084-1.602-8e-3 -1.847 0.141-0.457 0.38-0.885 0.449-1.362 0.084-0.58 0.038-1.212 0.271-1.752 0.179-0.415 0.327-0.988-0.136-1.278-0.379-0.238-0.777 0.572-1.263 0.604-0.439 0.029-1.082-0.329-1.491-0.102-0.556 0.309-0.232 1.723-0.543 2.275-0.341 0.606-0.88 0.631-1.363 0.793z"/>
   </g>
  </g>
  <g transform="matrix(.13231 0 0 .13229 23.416 269.48)" stroke="#ebeded">
   <path d="M 40.847,17.204 C 36.236,16.157 38.764,1 24.996,1 10.86,1 14.023,15.418 8.974,17.204 4.109,18.926 1,22.81 1,28.333 c 11.209,0.593 5.293,9.968 9.359,11.323 4.163,1.388 5.936,1.699 7.493,4.995 1.126,2.385 2.775,4.405 7.308,4.348 7.308,-0.093 6.297,-6.104 9.99,-7.215 9.528,-2.868 0.74,-11.748 13.842,-11.046 0,-5.522 0.031,-11.676 -8.145,-13.534 z" fill="none" stroke-linecap="round" stroke-linejoin="round" stroke-miterlimit="10" stroke-width="2"/>
   <ellipse cx="26.996" cy="13.998" rx="2" ry="3" fill="#ebeded"/>
   <ellipse cx="18.996" cy="13.998" rx="2" ry="3" fill="#ebeded"/>
  </g>
  <g transform="rotate(-11.841 7.1438 272.92)" fill="#ebeded" fill-rule="evenodd" stroke-width="0">
   <rect x="3.175" y="266.31" width=".52917" height="13.229"/>
   <rect x="10.583" y="266.31" width=".52917" height="13.229"/>
   <rect x="3.175" y="279.01" width="7.9375" height=".52917"/>
   <rect x="3.175" y="266.31" width="7.9375" height=".52917"/>
  </g>
  <g transform="rotate(11.841 16.933 367.32)" fill="#ebeded" fill-rule="evenodd" stroke-width="0">
   <rect x="3.175" y="266.31" width=".52917" height="13.229"/>
   <rect x="10.583" y="266.31" width=".52917" height="13.229"/>
   <rect x="3.175" y="279.01" width="7.9375" height=".52917"/>
   <rect x="3.175" y="266.31" width="7.9375" height=".52917"/>
  </g>
  <g transform="translate(10.054 14.288)" fill="#ebeded" fill-rule="evenodd" stroke-width="0">
   <rect x="3.175" y="266.31" width=".52917" height="13.229"/>
   <rect x="10.583" y="266.31" width=".52917" height="13.229"/>
   <rect x="3.175" y="279.01" width="7.9375" height=".52917"/>
   <rect x="3.175" y="266.31" width="7.9375" height=".52917"/>
  </g>
  <g transform="matrix(.30624 0 0 .30624 3.1517 283.22)">
   <path d="m5.169 11.32c-0.692 0.347-1.169 1.263-1.169 2.406 0 1.465 1.196 2.841 2 2.841 1.002 5.398 5.625 6.433 7 6.433s5.953-0.971 7-6.43c1.021 0 2-1.434 2-2.845 0-1.134-0.541-2.098-1.254-2.431" fill="none" stroke="#ebeded" stroke-linecap="round" stroke-linejoin="round" stroke-miterlimit="10" stroke-width="1.8"/>
   <g fill="#ebeded">
    <path d="m4.341 12.303c0.064 0.367 2.01-0.396 2.221-0.674 0.391-0.518 0.317-1.272 0.291-1.879-0.044-0.989-0.112-1.968 0.028-2.953 0.064-0.452 0.059-1.115 0.207-1.533 0.247-0.7 0.701-0.356 1.199-0.313 0.591 0.051 0.488-0.47 0.965-0.554 0.854-0.151 1.18 0.963 1.332 1.537 0.066 0.25 0.135 0.863 0.404 1.03 0.408 0.253 0.686-0.156 0.782-0.503 0.184-0.663-0.273-1.824 0.257-2.355 1.587-1.587 1.65 3.167 2.447 3.166 0.431-2e-3 0.527-0.592 0.611-0.873 0.208-0.699 0.155-1.448 0.527-2.102 0.675-1.184 2.213-1.039 3.008-0.068 1.115 1.363 0.611 2.98 0.492 4.588-0.124 1.677 0.28 3.295 2.218 3.471 0.036 3e-3 0.402 0.032 0.405 0.017 0.104-0.698 0.146-1.391 0.19-2.092 0.027-0.431 0.333-0.808 0.321-1.241-8e-3 -0.303-0.334-0.6-0.35-0.879-0.026-0.478 0.383-0.528 0.373-0.975-0.013-0.525-0.431-1.169-0.715-1.585-0.16-0.236-0.746-0.708-0.796-1.014-0.037-0.228 0.077-0.23 0.126-0.421 0.07-0.281 0.233-0.21 0.106-0.516-0.035-0.083-0.351-0.294-0.424-0.347-1.153-0.831-2.104-1.802-3.433-2.38-1.286-0.56-2.7-0.79-4.098-0.79-2.448 0-4.833 0.939-7.019 1.972-0.341 0.161-0.728 0.255-0.98 0.568-0.463 0.575 0.172 0.454 0.336 0.911 0.205 0.571-0.955 1.623-1.257 2.113-0.24 0.389-0.509 0.758-0.5 1.229 9e-3 0.413 0.276 0.712 0.267 1.087-8e-3 0.425-0.305 0.841-0.331 1.256-0.027 0.435 0.375 0.816 0.5 1.217 0.186 0.594 0.182 1.27 0.29 1.885z"/>
    <path d="m12 17c-0.375 0 0.434-2 1-2s1.281 2 1 2-0.604-0.656-0.953-0.656-0.672 0.656-1.047 0.656z"/>
    <path d="m14 12.757c0 1.085 0.918 2.206 2.004 2.206 1.996 0 2.996-1.878 2.996-2.963 0 0-1.186-1.222-2.963-0.704s-2.037 1.461-2.037 1.461zm2.5 1.415c-0.371 0-0.672-0.3-0.672-0.672s0.301-0.672 0.672-0.672 0.672 0.301 0.672 0.672-0.301 0.672-0.672 0.672z"/>
    <path d="m7 12c0 1.085 1 2.963 3.035 2.963 0.874 0 1.965-1.121 1.965-2.206zm2.5 2.172c-0.372 0-0.672-0.3-0.672-0.672s0.301-0.672 0.672-0.672 0.672 0.301 0.672 0.672-0.3 0.672-0.672 0.672z"/>
    <path d="m15.287 19.451c-0.21 0.07-0.409 0.166-0.577 0.347-0.308 0.33-0.099 0.817-0.272 1.202-0.158 0.351-0.485 0.55-0.83 0.689-0.712 0.289-1.65 0.328-2.392 0.134 0.137 0.036 0.436 0.686 0.676 0.81 0.311 0.158 0.842 0.278 1.194 0.298 0.428 0.024 0.892-0.062 1.27-0.265 0.336-0.18 0.603-0.443 0.907-0.669 0.368-0.271 0.674-0.62 1.051-0.883 0.243-0.17 0.461-0.335 0.685-0.528 0.182-0.158 0.479-0.396 0.707-0.465 0.266-0.078 0.556 0.163 0.703 0.377 0.416 0.604 0.057 2.373-0.156 2.962-0.057 0.158-0.118 0.315-0.176 0.474-0.094 0.258-0.108 0.484-0.109 0.766 0 0.408 0.232 0.956 0.61 1.141 0.339 0.166 0.61 0.234 1.194-0.053 0.304-0.15 0.43-0.678 0.46-0.994 0.028-0.304-0.026-0.602-0.149-0.876-0.141-0.313-0.336-0.595-0.48-0.9-0.133-0.282-0.202-0.589-0.232-0.898-0.025-0.253-0.084-1.602-8e-3 -1.847 0.141-0.457 0.38-0.885 0.449-1.362 0.084-0.58 0.038-1.212 0.271-1.752 0.179-0.415 0.327-0.988-0.136-1.278-0.379-0.238-0.777 0.572-1.263 0.604-0.439 0.029-1.082-0.329-1.491-0.102-0.556 0.309-0.232 1.723-0.543 2.275-0.341 0.606-0.88 0.631-1.363 0.793z"/>
   </g>
  </g>
  <g transform="matrix(.018573 0 0 .018502 13.463 268.7)" fill="#ebeded">
   <path d="m184 44.484c-46.267 9.286-89.481 57.994-96.166 108.39-1.806 13.615-3.095 14.333-11.317 6.305l-7.184-7.015 0.024 22.139c0.044 41.973 11.211 76.515 27.567 85.268 7.361 3.94 4.537 6.839-13.857 14.231-16.975 6.821-52.392 24.206-58.678 28.802-2.866 2.096-1.927 3.339 10.271 13.598 13.422 11.288 50.09 49.168 69.499 71.795 8.318 9.697 11.284 12 15.456 12h5.162l-0.61-33.333-0.611-33.334 15.111 15.291c45.741 46.283 101.28 41.864 137.86-10.97l5.253-7.586 0.889 34.522 0.889 34.521 4.444 0.504c3.717 0.421 7.207-2.768 21.333-19.492 18.287-21.649 51.793-56.307 62.92-65.082l6.92-5.457-15.688-10.226c-8.628-5.624-25.342-15.081-37.142-21.014-21.276-10.699-21.449-10.836-20.897-16.566 0.306-3.178 1.544-5.778 2.75-5.778 14.789 0 29.582-42.062 29.582-84.113v-21.497l-6.925 6.761-6.925 6.762-1.276-7.734c-12.238-74.132-74.781-124.52-138.65-111.7m9.451 76.907c8.232 10.818 12.319 14.914 13.304 13.334 1.494-2.398 24.901-39.47 27.817-44.058 3.116-4.902 26.177 8.656 40.661 23.904 19.612 20.646 35.761 55.227 35.952 76.985l0.074 8.444 6.148-6.963c7.359-8.334 7.725-6.743 3.336 14.505-4.794 23.214-13.067 36.014-23.275 36.014h-5.912v10.55c0 42.377-27.361 88.637-63.177 106.82-47.366 24.042-107.11-27.631-113.74-98.374-1.204-12.847-1.532-13.659-5.516-13.659-11.257 0-25.568-33.126-25.568-59.184v-5.538l6.741 6.583c8.837 8.629 8.671 8.752 9.632-7.194 1.841-30.585 26.56-68.959 57.404-89.118l8.889-5.81 7.673 8.575c4.22 4.716 13.02 15.601 19.556 24.188m56.756 74.062c-28.36 8.507-34.769 14.021-23.667 20.365 1.885 1.078 5.216 3.96 7.401 6.404 5.705 6.382 28.636 6.658 34.874 0.42 5.366-5.366 2.623-9.869-6.774-11.119l-6.93-0.922 12.678-3.954c14.162-4.417 17.346-8.623 11.19-14.779-4.216-4.216-1.733-4.525-28.772 3.585m-123.63 0.458c-5.743 5.743-1.056 13.867 8 13.867 3.226 0 5.866 0.8 5.866 1.778 0 0.977-0.8 1.777-1.777 1.777-0.978 0-1.778 2.041-1.778 4.535 0 11.978 34.74 13.184 39.235 1.362 0.906-2.383 2.318-3.918 3.139-3.411 2.042 1.262 9.181-3.941 9.181-6.691 0-6.358-4.571-8.082-31.034-11.707-31.398-4.302-28.197-4.145-30.832-1.51m38.913 123.64c4.135 7.577 7.797 14.117 8.138 14.531 0.341 0.415 2.802-4.185 5.471-10.222l4.851-10.976h39.998l5.565 11.025 5.566 11.026 2.752-5.248c1.514-2.886 4.611-9.448 6.882-14.581l4.13-9.333h-90.871l7.518 13.778" fill="#ebeded" fill-rule="evenodd"/>
  </g>
 </g>
</svg>
