<?xml version="1.0" encoding="UTF-8" standalone="no"?>
<!-- Created with Inkscape (http://www.inkscape.org/) -->

<svg
   xmlns:dc="http://purl.org/dc/elements/1.1/"
   xmlns:cc="http://creativecommons.org/ns#"
   xmlns:rdf="http://www.w3.org/1999/02/22-rdf-syntax-ns#"
   xmlns:svg="http://www.w3.org/2000/svg"
   xmlns="http://www.w3.org/2000/svg"
   xmlns:sodipodi="http://sodipodi.sourceforge.net/DTD/sodipodi-0.dtd"
   xmlns:inkscape="http://www.inkscape.org/namespaces/inkscape"
   width="128"
   height="128"
   viewBox="0 0 33.866666 33.866668"
   version="1.1"
   id="svg2426"
   inkscape:version="0.92.4 (5da689c313, 2019-01-14)"
   sodipodi:docname="mirror-disabled.svg">
  <defs
     id="defs2420" />
  <sodipodi:namedview
     id="base"
     pagecolor="#ffffff"
     bordercolor="#666666"
     borderopacity="1.0"
     inkscape:pageopacity="0.0"
     inkscape:pageshadow="2"
     inkscape:zoom="1.91"
     inkscape:cx="-142.05467"
     inkscape:cy="37.882313"
     inkscape:document-units="mm"
     inkscape:current-layer="layer1"
     showgrid="false"
     inkscape:pagecheckerboard="true"
     units="px"
     inkscape:window-width="1920"
     inkscape:window-height="1017"
     inkscape:window-x="-8"
     inkscape:window-y="-8"
     inkscape:window-maximized="1" />
  <metadata
     id="metadata2423">
    <rdf:RDF>
      <cc:Work
         rdf:about="">
        <dc:format>image/svg+xml</dc:format>
        <dc:type
           rdf:resource="http://purl.org/dc/dcmitype/StillImage" />
        <dc:title />
      </cc:Work>
    </rdf:RDF>
  </metadata>
  <g
     inkscape:label="Calque 1"
     inkscape:groupmode="layer"
     id="layer1"
     transform="translate(0,-263.13332)">
    <path
       inkscape:connector-curvature="0"
       style="fill:#737370;stroke-width:0.26458341"
       d="m 4.78685,264.72082 h 24.29172 c 1.75926,0 3.2006,1.4396 3.2006,3.20041 v 24.29032 c 0,1.76135 -1.44134,3.20094 -3.2006,3.20094 H 4.78685 c -1.76107,0 -3.19935,-1.43959 -3.19935,-3.20094 v -24.29032 c 0,-1.76081 1.43828,-3.20041 3.19935,-3.20041"
       id="path3836"
       inkscape:label="back" />
    <g
       transform="matrix(0.02971713,0,0,0.02960286,3.230865,277.3887)"
       id="svgg"
       style="fill:#ebeded;fill-opacity:1">
      <path
         id="path0"
         d="m 184,44.484 c -46.267,9.286 -89.481,57.994 -96.166,108.393 -1.806,13.615 -3.095,14.333 -11.317,6.305 l -7.184,-7.015 0.024,22.139 c 0.044,41.973 11.211,76.515 27.567,85.268 7.361,3.94 4.537,6.839 -13.857,14.231 -16.975,6.821 -52.392,24.206 -58.678,28.802 -2.866,2.096 -1.927,3.339 10.271,13.598 13.422,11.288 50.09,49.168 69.499,71.795 8.318,9.697 11.284,12 15.456,12 h 5.162 l -0.61,-33.333 -0.611,-33.334 15.111,15.291 c 45.741,46.283 101.278,41.864 137.858,-10.97 l 5.253,-7.586 0.889,34.522 0.889,34.521 4.444,0.504 c 3.717,0.421 7.207,-2.768 21.333,-19.492 18.287,-21.649 51.793,-56.307 62.92,-65.082 l 6.92,-5.457 -15.688,-10.226 c -8.628,-5.624 -25.342,-15.081 -37.142,-21.014 -21.276,-10.699 -21.449,-10.836 -20.897,-16.566 0.306,-3.178 1.544,-5.778 2.75,-5.778 14.789,0 29.582,-42.062 29.582,-84.113 V 150.39 l -6.925,6.761 -6.925,6.762 -1.276,-7.734 C 310.414,82.047 247.871,31.663 184,44.484 m 9.451,76.907 c 8.232,10.818 12.319,14.914 13.304,13.334 1.494,-2.398 24.901,-39.47 27.817,-44.058 3.116,-4.902 26.177,8.656 40.661,23.904 19.612,20.646 35.761,55.227 35.952,76.985 l 0.074,8.444 6.148,-6.963 c 7.359,-8.334 7.725,-6.743 3.336,14.505 -4.794,23.214 -13.067,36.014 -23.275,36.014 h -5.912 v 10.55 c 0,42.377 -27.361,88.637 -63.177,106.816 -47.366,24.042 -107.11,-27.631 -113.739,-98.374 -1.204,-12.847 -1.532,-13.659 -5.516,-13.659 -11.257,0 -25.568,-33.126 -25.568,-59.184 v -5.538 l 6.741,6.583 c 8.837,8.629 8.671,8.752 9.632,-7.194 1.841,-30.585 26.56,-68.959 57.404,-89.118 l 8.889,-5.81 7.673,8.575 c 4.22,4.716 13.02,15.601 19.556,24.188 m 56.756,74.062 c -28.36,8.507 -34.769,14.021 -23.667,20.365 1.885,1.078 5.216,3.96 7.401,6.404 5.705,6.382 28.636,6.658 34.874,0.42 5.366,-5.366 2.623,-9.869 -6.774,-11.119 l -6.93,-0.922 12.678,-3.954 c 14.162,-4.417 17.346,-8.623 11.19,-14.779 -4.216,-4.216 -1.733,-4.525 -28.772,3.585 m -123.629,0.458 c -5.743,5.743 -1.056,13.867 8,13.867 3.226,0 5.866,0.8 5.866,1.778 0,0.977 -0.8,1.777 -1.777,1.777 -0.978,0 -1.778,2.041 -1.778,4.535 0,11.978 34.74,13.184 39.235,1.362 0.906,-2.383 2.318,-3.918 3.139,-3.411 2.042,1.262 9.181,-3.941 9.181,-6.691 0,-6.358 -4.571,-8.082 -31.034,-11.707 -31.398,-4.302 -28.197,-4.145 -30.832,-1.51 m 38.913,123.645 c 4.135,7.577 7.797,14.117 8.138,14.531 0.341,0.415 2.802,-4.185 5.471,-10.222 l 4.851,-10.976 h 19.999 19.999 l 5.565,11.025 5.566,11.026 2.752,-5.248 c 1.514,-2.886 4.611,-9.448 6.882,-14.581 l 4.13,-9.333 h -45.435 -45.436 l 7.518,13.778"
         inkscape:connector-curvature="0"
         style="fill:#ebeded;fill-opacity:1;fill-rule:evenodd;stroke:none" />
    </g>
    <g
       transform="matrix(0.40831673,0,0,0.40831673,20.795345,282.91686)"
       id="g832">
      <path
         id="path2"
         d="M 5.169,11.32 C 4.477,11.667 4,12.583 4,13.726 c 0,1.465 1.196,2.841 2,2.841 1.002,5.398 5.625,6.433 7,6.433 1.375,0 5.953,-0.971 7,-6.43 1.021,0 2,-1.434 2,-2.845 0,-1.134 -0.541,-2.098 -1.254,-2.431"
         stroke-miterlimit="10"
         inkscape:connector-curvature="0"
         style="fill:none;stroke:#ebeded;stroke-width:1.79999995;stroke-linecap:round;stroke-linejoin:round;stroke-miterlimit:10;stroke-opacity:1" />
      <path
         id="path4"
         d="M 4.341,12.303 C 4.405,12.67 6.351,11.907 6.562,11.629 6.953,11.111 6.879,10.357 6.853,9.75 6.809,8.761 6.741,7.782 6.881,6.797 6.945,6.345 6.94,5.682 7.088,5.264 7.335,4.564 7.789,4.908 8.287,4.951 8.878,5.002 8.775,4.481 9.252,4.397 c 0.854,-0.151 1.18,0.963 1.332,1.537 0.066,0.25 0.135,0.863 0.404,1.03 0.408,0.253 0.686,-0.156 0.782,-0.503 0.184,-0.663 -0.273,-1.824 0.257,-2.355 1.587,-1.587 1.65,3.167 2.447,3.166 C 14.905,7.27 15.001,6.68 15.085,6.399 15.293,5.7 15.24,4.951 15.612,4.297 16.287,3.113 17.825,3.258 18.62,4.229 c 1.115,1.363 0.611,2.98 0.492,4.588 -0.124,1.677 0.28,3.295 2.218,3.471 0.036,0.003 0.402,0.032 0.405,0.017 0.104,-0.698 0.146,-1.391 0.19,-2.092 C 21.952,9.782 22.258,9.405 22.246,8.972 22.238,8.669 21.912,8.372 21.896,8.093 21.87,7.615 22.279,7.565 22.269,7.118 22.256,6.593 21.838,5.949 21.554,5.533 21.394,5.297 20.808,4.825 20.758,4.519 20.721,4.291 20.835,4.289 20.884,4.098 20.954,3.817 21.117,3.888 20.99,3.582 20.955,3.499 20.639,3.288 20.566,3.235 19.413,2.404 18.462,1.433 17.133,0.855 15.847,0.295 14.433,0.065 13.035,0.065 10.587,0.065 8.202,1.004 6.016,2.037 5.675,2.198 5.288,2.292 5.036,2.605 4.573,3.18 5.208,3.059 5.372,3.516 5.577,4.087 4.417,5.139 4.115,5.629 3.875,6.018 3.606,6.387 3.615,6.858 3.624,7.271 3.891,7.57 3.882,7.945 3.874,8.37 3.577,8.786 3.551,9.201 c -0.027,0.435 0.375,0.816 0.5,1.217 0.186,0.594 0.182,1.27 0.29,1.885 z"
         inkscape:connector-curvature="0"
         style="fill:#ebeded;fill-opacity:1" />
      <path
         id="path6"
         d="m 12,17 c -0.375,0 0.434,-2 1,-2 0.566,0 1.281,2 1,2 -0.281,0 -0.604,-0.656 -0.953,-0.656 C 12.698,16.344 12.375,17 12,17 Z"
         inkscape:connector-curvature="0"
         style="fill:#ebeded;fill-opacity:1" />
      <path
         id="path8"
         d="m 14,12.757 c 0,1.085 0.918,2.206 2.004,2.206 C 18,14.963 19,13.085 19,12 19,12 17.814,10.778 16.037,11.296 14.26,11.814 14,12.757 14,12.757 Z m 2.5,1.415 c -0.371,0 -0.672,-0.3 -0.672,-0.672 0,-0.372 0.301,-0.672 0.672,-0.672 0.371,0 0.672,0.301 0.672,0.672 0,0.371 -0.301,0.672 -0.672,0.672 z"
         inkscape:connector-curvature="0"
         style="fill:#ebeded;fill-opacity:1" />
      <path
         id="path10"
         d="m 7,12 c 0,1.085 1,2.963 3.035,2.963 0.874,0 1.965,-1.121 1.965,-2.206 z m 2.5,2.172 c -0.372,0 -0.672,-0.3 -0.672,-0.672 0,-0.372 0.301,-0.672 0.672,-0.672 0.371,0 0.672,0.301 0.672,0.672 0,0.371 -0.3,0.672 -0.672,0.672 z"
         inkscape:connector-curvature="0"
         style="fill:#ebeded;fill-opacity:1" />
      <path
         id="path12"
         d="m 15.287,19.451 c -0.21,0.07 -0.409,0.166 -0.577,0.347 -0.308,0.33 -0.099,0.817 -0.272,1.202 -0.158,0.351 -0.485,0.55 -0.83,0.689 -0.712,0.289 -1.65,0.328 -2.392,0.134 0.137,0.036 0.436,0.686 0.676,0.81 0.311,0.158 0.842,0.278 1.194,0.298 0.428,0.024 0.892,-0.062 1.27,-0.265 0.336,-0.18 0.603,-0.443 0.907,-0.669 0.368,-0.271 0.674,-0.62 1.051,-0.883 0.243,-0.17 0.461,-0.335 0.685,-0.528 0.182,-0.158 0.479,-0.396 0.707,-0.465 0.266,-0.078 0.556,0.163 0.703,0.377 0.416,0.604 0.057,2.373 -0.156,2.962 -0.057,0.158 -0.118,0.315 -0.176,0.474 -0.094,0.258 -0.108,0.484 -0.109,0.766 0,0.408 0.232,0.956 0.61,1.141 0.339,0.166 0.61,0.234 1.194,-0.053 0.304,-0.15 0.43,-0.678 0.46,-0.994 0.028,-0.304 -0.026,-0.602 -0.149,-0.876 -0.141,-0.313 -0.336,-0.595 -0.48,-0.9 -0.133,-0.282 -0.202,-0.589 -0.232,-0.898 -0.025,-0.253 -0.084,-1.602 -0.008,-1.847 0.141,-0.457 0.38,-0.885 0.449,-1.362 0.084,-0.58 0.038,-1.212 0.271,-1.752 0.179,-0.415 0.327,-0.988 -0.136,-1.278 -0.379,-0.238 -0.777,0.572 -1.263,0.604 -0.439,0.029 -1.082,-0.329 -1.491,-0.102 -0.556,0.309 -0.232,1.723 -0.543,2.275 -0.341,0.606 -0.88,0.631 -1.363,0.793 z"
         inkscape:connector-curvature="0"
         style="fill:#ebeded;fill-opacity:1" />
    </g>
    <g
       id="g823"
       transform="matrix(0.21166606,0,0,0.21166606,16.184543,266.15462)"
       style="stroke:#ebeded;stroke-opacity:1">
      <path
         id="path2-9"
         d="M 40.847,17.204 C 36.236,16.157 38.764,1 24.996,1 10.86,1 14.023,15.418 8.974,17.204 4.109,18.926 1,22.81 1,28.333 c 11.209,0.593 5.293,9.968 9.359,11.323 4.163,1.388 5.936,1.699 7.493,4.995 1.126,2.385 2.775,4.405 7.308,4.348 7.308,-0.093 6.297,-6.104 9.99,-7.215 9.528,-2.868 0.74,-11.748 13.842,-11.046 0,-5.522 0.031,-11.676 -8.145,-13.534 z"
         stroke-miterlimit="10"
         inkscape:connector-curvature="0"
         style="fill:none;stroke:#ebeded;stroke-width:2;stroke-linecap:round;stroke-linejoin:round;stroke-miterlimit:10;stroke-opacity:1" />
      <ellipse
         id="ellipse4"
         ry="3"
         rx="2"
         cy="13.998"
         cx="26.996"
         style="fill:#ebeded;fill-opacity:1;stroke:#ebeded;stroke-opacity:1" />
      <ellipse
         id="ellipse6"
         ry="3"
         rx="2"
         cy="13.998"
         cx="18.996"
         style="fill:#ebeded;fill-opacity:1;stroke:#ebeded;stroke-opacity:1" />
    </g>
    <rect
       style="opacity:1;fill:#ebeded;fill-opacity:1;fill-rule:evenodd;stroke:#ebeded;stroke-width:1.15976357;stroke-miterlimit:4;stroke-dasharray:none;stroke-opacity:1"
       id="rect896"
       width="0.043549377"
       height="23.119543"
       x="-191.32585"
       y="186.75905"
       transform="rotate(-46.563019)" />
  </g>
</svg>
